<svg width="25" height="25" viewBox="0 0 25 25" fill="none" xmlns="http://www.w3.org/2000/svg">
<path d="M22.7142 11.8524C22.7142 17.1356 18.2365 21.4192 12.7142 21.4192C12.0649 21.42 11.4175 21.36 10.7796 21.2402C10.3206 21.154 10.091 21.1109 9.93076 21.1353C9.77051 21.1598 9.54341 21.2806 9.08922 21.5221C7.80437 22.2054 6.30619 22.4467 4.86534 22.1787C5.41297 21.5051 5.78698 20.6969 5.95201 19.8305C6.05201 19.3006 5.80423 18.7857 5.43312 18.4088C3.74757 16.6973 2.71423 14.3908 2.71423 11.8524C2.71423 6.56929 7.19201 2.28572 12.7142 2.28572C18.2365 2.28572 22.7142 6.56929 22.7142 11.8524Z" fill="#1E2939"/>
<path d="M22.7142 11.8524C22.7142 17.1356 18.2365 21.4192 12.7142 21.4192C12.0649 21.42 11.4175 21.36 10.7796 21.2402C10.3206 21.154 10.091 21.1109 9.93076 21.1353C9.77051 21.1598 9.54341 21.2806 9.08922 21.5221C7.80437 22.2054 6.30619 22.4467 4.86534 22.1787C5.41297 21.5051 5.78698 20.6969 5.95201 19.8305C6.05201 19.3006 5.80423 18.7857 5.43312 18.4088C3.74757 16.6973 2.71423 14.3908 2.71423 11.8524C2.71423 6.56929 7.19201 2.28572 12.7142 2.28572C18.2365 2.28572 22.7142 6.56929 22.7142 11.8524Z" stroke="#00BCFF" stroke-opacity="0.64" stroke-width="1.5" stroke-linejoin="round"/>
<path d="M12.7097 12.2857H12.7187M16.7053 12.2857H16.7142M8.71423 12.2857H8.72321" stroke="#00BCFF" stroke-opacity="0.64" stroke-width="2" stroke-linecap="round" stroke-linejoin="round"/>
</svg>
