<svg width="21" height="18" viewBox="0 0 21 18" fill="none" xmlns="http://www.w3.org/2000/svg">
<path d="M0.933708 8.79727C0.933708 3.99497 4.82675 0.101929 9.62905 0.101929H11.8011C16.6034 0.101929 20.4965 3.99497 20.4965 8.79727C20.4965 13.5996 16.6034 17.4926 11.8011 17.4926H9.62905C4.82675 17.4926 0.933708 13.5996 0.933708 8.79727Z" fill="#FF6900"/>
<path d="M10.0595 9.74594V9.23932C10.0595 8.88502 10.1075 8.61019 10.2035 8.41483C10.2995 8.21615 10.4336 8.05059 10.6058 7.91814C10.7813 7.78238 10.9866 7.63504 11.2217 7.4761C11.4932 7.28736 11.6836 7.09199 11.7929 6.89001C11.9055 6.68803 11.9618 6.48107 11.9618 6.26916C11.9618 5.94134 11.8492 5.68141 11.624 5.48936C11.3989 5.29731 11.0926 5.20129 10.7052 5.20129C10.2813 5.20129 9.9502 5.32546 9.71179 5.5738C9.47338 5.82214 9.35418 6.16816 9.35418 6.61187H8.29127C8.29127 6.1483 8.39227 5.74267 8.59425 5.39499C8.79623 5.044 9.07769 4.77083 9.43861 4.57547C9.80285 4.3801 10.2267 4.28242 10.7101 4.28242C11.1604 4.28242 11.5578 4.3652 11.9022 4.53076C12.2498 4.69633 12.5214 4.92646 12.7167 5.22115C12.9154 5.51254 13.0147 5.84863 13.0147 6.22942C13.0147 6.9612 12.6671 7.56384 11.9717 8.03735C11.7565 8.18635 11.5826 8.3188 11.4502 8.4347C11.3177 8.54728 11.2217 8.67145 11.1621 8.80721C11.1025 8.93966 11.0727 9.11184 11.0727 9.32376V9.74594H10.0595ZM10.571 11.8817C10.379 11.8817 10.2151 11.8155 10.0793 11.683C9.94357 11.5472 9.87569 11.3817 9.87569 11.1863C9.87569 10.9943 9.94357 10.8304 10.0793 10.6946C10.2151 10.5588 10.379 10.491 10.571 10.491C10.7664 10.491 10.9303 10.5588 11.0628 10.6946C11.1985 10.8304 11.2664 10.9943 11.2664 11.1863C11.2664 11.3817 11.1985 11.5472 11.0628 11.683C10.9303 11.8155 10.7664 11.8817 10.571 11.8817Z" fill="white"/>
</svg>
