<svg width="30" height="30" viewBox="0 0 30 30" fill="none" xmlns="http://www.w3.org/2000/svg">
<g clip-path="url(#clip0_439_806)">
<rect x="0.777771" y="0.511597" width="28.5714" height="28.5714" rx="14.2857" fill="#FBDFB1"/>
<path d="M18.5878 19.1534C18.5878 19.1534 17.836 20.2303 16.6353 21.3399C15.6371 22.2618 14.9098 22.5652 14.9722 22.7644L14.8117 22.6553C14.6188 22.3577 12.8658 19.6488 12.8063 19.6087C12.907 18.6763 12.8844 16.7762 12.8844 16.7762C11.8652 17.1362 10.8074 17.2241 10.0195 16.5947C7.29174 14.4162 10.7276 8.86702 11.7373 7.36389C11.7445 7.38822 12.0928 8.55334 12.5409 8.77744C12.9934 9.00354 13.7753 8.9214 14.2072 9.22992C14.6394 9.53845 14.7009 10.3819 14.9891 10.6289C15.277 10.8759 16.4499 11.0816 16.5938 11.4517C16.7378 11.822 16.4702 12.5215 16.8611 12.8509C17.2521 13.1801 17.7046 12.9537 17.9104 13.4886C18.1161 14.0235 17.4596 14.7539 17.8709 15.2064C18.2824 15.6589 18.5815 15.81 18.5406 16.502C18.4994 17.1943 17.8895 17.9591 18.2598 18.597C18.3643 18.777 18.477 18.963 18.5878 19.1534Z" fill="#CC927A" stroke="black" stroke-width="0.254401" stroke-linecap="round" stroke-linejoin="round"/>
<path d="M29.3381 23.2337C29.316 23.4549 26.1961 28.7431 25.9969 28.8979C25.9054 28.9692 23.6865 30.0387 21.3024 31.1769C20.4816 31.5687 19.6413 31.9688 18.8614 32.3392C20.4315 29.9792 22.3645 26.8945 22.3645 26.6721C22.3645 26.3075 20.669 25.7056 20.6144 25.5053C20.5594 25.3046 22.5285 24.1561 22.4738 23.8645C22.4589 23.7858 22.2938 23.4438 22.0348 22.9924C21.8588 22.6848 21.639 22.3267 21.3943 21.9661C21.8456 21.9896 22.3983 22.3359 22.9509 22.3359C23.0365 22.3359 23.1335 22.3319 23.2371 22.3256C23.8047 22.2915 24.57 22.1871 24.7611 22.2741C24.9875 22.3771 25.7488 23.2205 26.3249 22.912C26.9008 22.6032 27.2299 22.3771 27.2917 22.1713C27.3035 22.1318 27.2957 22.0465 27.2766 21.9309C27.5759 22.0076 27.7548 22.0548 27.7671 22.0611C27.8009 22.078 28.0424 22.2214 28.3261 22.4043C28.7837 22.6991 29.3518 23.0972 29.3381 23.2337Z" fill="#F5D256" stroke="black" stroke-width="0.254401" stroke-linecap="round" stroke-linejoin="round"/>
<path d="M22.3621 26.6708C22.3621 26.846 21.1623 28.7976 19.8856 30.7718C19.5416 31.3036 19.1921 31.8371 18.859 32.3379C18.3329 32.5878 17.8341 32.8239 17.3879 33.0345C16.8075 33.309 16.3152 33.5408 15.9652 33.7042C15.7946 33.3983 15.6713 33.161 15.6713 33.161C15.6713 33.161 17.8722 26.5896 18.7848 23.1454C19.0081 22.3026 19.1543 21.6469 19.1721 21.3209C19.1838 21.1048 19.1904 20.9219 19.1924 20.7674C19.2076 20.7219 19.2184 20.6818 19.2247 20.6475C19.3481 21.3469 19.019 22.1494 19.5745 22.458C19.9442 22.6632 20.4231 22.3675 20.8355 22.1529C21.043 22.045 21.2336 21.9574 21.385 21.9643C21.3873 21.9643 21.3896 21.9646 21.3918 21.9648C21.6365 22.3255 21.8564 22.6835 22.0324 22.9912C22.2914 23.4425 22.4565 23.7845 22.4714 23.8632C22.5261 24.1549 20.557 25.3034 20.612 25.504C20.6214 25.5381 20.6775 25.5833 20.7648 25.6371C21.1924 25.9015 22.3621 26.368 22.3621 26.6708Z" fill="#F5D256" stroke="black" stroke-width="0.254401" stroke-linecap="round" stroke-linejoin="round"/>
<path d="M12.6695 8.34625C12.7033 8.86685 12.9643 9.36856 13.3713 9.69483C13.64 9.91034 13.9629 10.0486 14.2422 10.2506C14.6775 10.5655 14.9963 11.0374 15.1263 11.5586C15.1695 11.7326 15.1955 11.918 15.3014 12.0629C15.4814 12.3087 15.8323 12.3594 16.0553 12.5671C16.5421 13.0202 16.1864 13.916 16.5916 14.4435C16.6949 14.578 16.8406 14.6762 16.9371 14.8158C17.1039 15.0579 17.0939 15.3759 17.0807 15.6696C17.002 17.4217 17.0899 19.3106 18.1434 20.713C18.3211 20.9494 18.5693 21.1867 18.8641 21.1609C19.2003 21.1314 19.4041 20.7837 19.5323 20.4714C19.984 19.3716 20.2121 18.1921 20.3483 17.011C20.4653 15.997 20.5149 14.9578 20.2739 13.9658C20.0461 13.0282 19.5693 12.1739 19.1328 11.3136C18.7645 10.5875 18.4047 9.82591 17.7877 9.29472C17.2562 8.83737 16.5799 8.59152 15.9199 8.35512C15.4328 8.18054 14.946 8.00624 14.4589 7.83166C13.9056 7.63361 13.2359 7.45159 12.7757 7.81649" fill="#BA735A"/>
<path d="M8.37526 10.5626C8.15575 11.5832 7.9826 12.6204 7.99032 13.6645C7.99805 14.7085 8.1941 15.7649 8.67835 16.6899C8.9096 17.1315 9.30542 17.5888 9.80112 17.5339C10.2213 17.4875 10.5178 17.0685 10.5819 16.651C10.6457 16.2331 10.5352 15.8113 10.4519 15.3971C10.3538 14.9089 10.2928 14.4117 10.3 13.914C10.328 11.9327 11.4056 10.1459 12.2404 8.34856C12.3927 8.02058 12.5398 7.68143 12.5675 7.3211C12.5753 7.22265 12.571 7.11532 12.5097 7.03776C12.4462 6.95734 12.3371 6.92929 12.235 6.91927C11.9084 6.88636 11.5819 6.98396 11.2813 7.1159C10.4806 7.46764 9.8057 8.06723 9.27165 8.75983C8.73788 9.45273 8.33691 10.2383 7.98431 11.0389" fill="#FFC7B3"/>
<path d="M14.815 17.4758C14.3368 18.0653 13.6542 18.4863 12.9124 18.6486C12.9095 18.1125 12.9127 17.5762 12.9221 17.0402C12.9235 16.954 12.9267 16.8633 12.971 16.7894C13.0205 16.7076 13.1116 16.6618 13.198 16.6212C13.5683 16.4469 13.9438 16.2837 14.3099 16.1003C14.4982 16.0058 14.6842 15.9065 14.8645 15.7975C14.9922 15.7202 15.2581 15.4483 15.3957 15.4334C15.7309 15.3971 15.4593 16.2179 15.4012 16.3948C15.2729 16.7863 15.0746 17.1552 14.815 17.4752V17.4758Z" fill="#B27059"/>
<path d="M19.1939 20.7694C19.1928 20.8461 19.1908 20.9297 19.1873 21.0207C19.1842 21.1134 19.1796 21.2139 19.1736 21.3229C19.0826 22.982 15.6728 33.163 15.6728 33.163H15.2927C15.2927 33.163 11.9287 23.5716 11.6617 21.5218C11.654 21.4643 11.6491 21.4128 11.6465 21.3675C11.6202 20.8879 11.6333 20.5688 11.6657 20.3575C11.7086 20.3495 11.7504 20.3415 11.791 20.3335C11.7767 20.4314 11.9256 20.9339 12.1436 21.5753C12.6182 22.972 13.421 25.0275 13.5809 25.0029C13.6373 24.9943 13.7575 24.8818 13.9029 24.7095C14.3577 24.1692 15.058 23.0381 14.8107 22.6569L14.9713 22.7659C14.9713 22.7659 15.6602 25.0521 16.0998 25.0816C16.4358 25.1039 18.0039 22.9588 18.7861 21.5974C18.8682 21.4545 18.9415 21.3203 19.0039 21.1981C19.0903 21.0292 19.1556 20.8833 19.1939 20.7694Z" fill="#C9C4FE" stroke="black" stroke-width="0.254401" stroke-linecap="round" stroke-linejoin="round"/>
<path d="M19.1884 21.0195C19.1853 21.1123 19.1807 21.2127 19.1747 21.3218C19.0837 22.9809 15.6739 33.1619 15.6739 33.1619H15.2938C15.2938 33.1619 11.9298 23.5704 11.6628 21.5207C11.7249 21.3976 11.7924 21.2774 11.8651 21.1603C11.9584 21.298 12.0517 21.436 12.1447 21.5742C12.6633 22.3452 13.1685 23.1268 13.5737 23.9622C13.6928 24.2072 13.8027 24.4562 13.904 24.7084C14.5139 26.2241 14.8187 27.858 14.9429 29.4908C14.9744 29.9046 15.0591 30.4101 15.4509 30.5472C17.2099 27.8809 17.4191 24.4817 18.7871 21.5962C18.806 21.5562 18.8252 21.5161 18.8447 21.476C18.8916 21.3793 18.9408 21.2825 19.0049 21.197C19.0244 21.1709 19.045 21.1457 19.0676 21.1223C19.1048 21.0834 19.1455 21.0493 19.1884 21.0195Z" fill="#A2A0F2"/>
<path d="M15.476 4.91025C16.2129 4.51472 17.1857 4.61375 17.8277 5.1498C17.9441 5.24711 18.0523 5.35873 18.1886 5.42627C18.5852 5.62375 19.0809 5.3945 19.4991 5.54132C19.8282 5.65695 20.0494 6.02186 19.9999 6.36701C19.9716 6.56363 19.8668 6.75739 19.9118 6.95086C19.9856 7.26855 20.3952 7.36214 20.7203 7.33495C21.0454 7.30804 21.4095 7.23478 21.6691 7.43225C21.9507 7.64633 21.9553 8.07077 21.8611 8.41192C21.7666 8.75279 21.5995 9.08793 21.6301 9.44024C22.1361 9.70555 22.8668 9.31403 23.2824 9.70641C23.588 9.99518 23.4876 10.4946 23.3688 10.8979C23.25 11.3011 23.1642 11.808 23.4839 12.081C23.8319 12.3784 24.426 12.1732 24.7778 12.466C25.1593 12.7836 24.9735 13.3875 24.8241 13.8609C24.6533 14.4033 24.5746 14.9745 24.5932 15.5429C24.598 15.692 24.6129 15.8509 24.7042 15.9691C24.8396 16.1451 25.0969 16.1717 25.3158 16.1333C25.5345 16.095 25.7466 16.0071 25.9686 16.0091C26.4955 16.014 26.8919 16.5294 26.9981 17.0455C27.1043 17.5618 27.007 18.0955 27.0116 18.6224C27.0136 18.8683 27.1074 19.1848 27.353 19.192C27.4346 19.6985 26.8822 20.2034 27.0926 20.6713C27.1507 20.8007 27.2597 20.8992 27.3393 21.0165C27.5293 21.2978 27.5287 21.6951 27.3375 21.9756C27.1464 22.256 26.7766 22.402 26.4455 22.3276" stroke="black" stroke-width="0.254401" stroke-linecap="round" stroke-linejoin="round"/>
<path d="M14.9807 4.56845C15.7176 4.17293 16.6904 4.27195 17.3324 4.808C17.4489 4.90531 17.5571 5.01693 17.6933 5.08448C18.09 5.28195 18.5857 5.05271 19.0038 5.19953C19.3329 5.31515 19.5542 5.68006 19.5047 6.02522C19.4763 6.22184 19.3716 6.4156 19.4165 6.60907C19.4903 6.92675 19.8999 7.02034 20.225 6.99315C20.5502 6.96625 20.9142 6.89298 21.1738 7.09046C21.4554 7.30454 21.46 7.72897 21.3658 8.07012C21.2714 8.41099 21.1042 8.74613 21.1349 9.09844C21.6409 9.36375 22.3715 8.97223 22.7871 9.36461C23.0928 9.65339 22.9923 10.1528 22.8735 10.5561C22.7548 10.9593 22.6689 11.4662 22.9886 11.7392C23.3366 12.0366 23.9308 11.8314 24.2825 12.1242C24.664 12.4418 24.4783 13.0457 24.3289 13.5191C24.158 14.0615 24.0793 14.6327 24.0979 15.2011C24.1028 15.3502 24.1176 15.5091 24.2089 15.6273C24.3443 15.8033 24.6016 15.8299 24.8206 15.7915C25.0392 15.7532 25.2513 15.6653 25.4734 15.6673C26.0003 15.6722 26.3967 16.1876 26.5028 16.7037C26.609 17.22 26.5117 17.7537 26.5163 18.2806C26.5183 18.5265 26.6122 18.843 26.8577 18.8502C26.9393 19.3567 26.3869 19.8616 26.5973 20.3295C26.6554 20.4589 26.7644 20.5574 26.844 20.6747C27.034 20.956 27.0335 21.3533 26.8423 21.6338C26.6511 21.9142 26.2813 22.0602 25.9502 21.9858" stroke="black" stroke-width="0.254401" stroke-linecap="round" stroke-linejoin="round"/>
<path d="M9.38746 6.27517C9.09239 6.10087 8.69428 6.21134 8.44414 6.44574C8.194 6.68014 8.06006 7.01042 7.94587 7.33354C7.83167 7.65666 7.72549 7.9918 7.51313 8.26083C7.19717 8.66065 6.67685 8.87387 6.40582 9.30575C6.02117 9.9185 6.26902 10.7322 6.07068 11.4279C5.92787 11.9288 5.55809 12.3475 5.45106 12.8569C5.23984 13.8612 6.093 14.9399 5.67286 15.8764C5.51889 16.2201 5.2158 16.4722 5.01059 16.7879C4.73269 17.2152 4.64654 17.7624 4.77963 18.2547C4.84202 18.4854 4.95078 18.7103 4.94162 18.949C4.93418 19.1485 4.8446 19.3348 4.75673 19.514C4.56641 19.9029 4.37609 20.2921 4.18576 20.6811C4.10563 20.8445 4.02406 21.0157 4.02463 21.1977C4.02578 21.5208 4.27878 21.7801 4.51461 22.0013C4.59589 22.0778 4.68203 22.1567 4.79022 22.1848C4.92473 22.2197 5.06468 22.1688 5.19405 22.1187C5.67458 21.9329 6.15511 21.7469 6.63564 21.5612" stroke="black" stroke-width="0.254401" stroke-linecap="round" stroke-linejoin="round"/>
<path d="M10.0408 5.40542C9.74571 5.23112 9.3476 5.34159 9.09746 5.57599C8.84733 5.81039 8.71338 6.14067 8.59919 6.46379C8.48499 6.78691 8.37881 7.12205 8.16645 7.39108C7.85049 7.7909 7.33017 8.00412 7.05914 8.436C6.67449 9.04875 6.92234 9.86242 6.724 10.5582C6.58119 11.059 6.21142 11.4777 6.10438 11.9872C5.89316 12.9915 6.74632 14.0702 6.32618 15.0066C6.17221 15.3503 5.86912 15.6025 5.66391 15.9181C5.38601 16.3454 5.29987 16.8927 5.43295 17.3849C5.49534 17.6156 5.6041 17.8406 5.59494 18.0793C5.5875 18.2787 5.49792 18.4651 5.41005 18.6442C5.21973 19.0332 5.02941 19.4224 4.83908 19.8113C4.75895 19.9748 4.67738 20.1459 4.67795 20.3279C4.6791 20.6511 4.9321 20.9104 5.16793 21.1316C5.24921 21.208 5.33535 21.287 5.44354 21.315C5.57805 21.35 5.718 21.299 5.84737 21.2489C6.3279 21.0632 6.80843 20.8772 7.28896 20.6914" stroke="black" stroke-width="0.254401" stroke-linecap="round" stroke-linejoin="round"/>
<path d="M12.0004 6.98254C12.0004 6.98254 11.9005 7.11963 11.7371 7.3629" stroke="black" stroke-width="0.254401" stroke-linecap="round" stroke-linejoin="round"/>
<path d="M15.5367 15.3113C14.9042 15.7703 13.9125 16.4126 12.8811 16.7763" stroke="black" stroke-width="0.254401" stroke-linecap="round" stroke-linejoin="round"/>
<path d="M27.2766 21.9302C27.2637 21.8529 27.246 21.7619 27.2254 21.6617C27.1163 21.1303 26.9329 20.3463 27.045 20.0103C27.2096 19.5167 27.3536 18.8993 26.7981 18.6114C26.2425 18.3235 26.1398 18.0971 26.1604 17.4592C26.1761 16.9615 25.9291 16.4637 25.6046 15.956C25.5133 15.8132 25.416 15.6698 25.3167 15.5253C25.2875 15.4829 25.2623 15.4423 25.2397 15.4028C24.9166 14.8284 25.2749 14.5368 24.9669 13.9206C24.9 13.7866 24.8127 13.681 24.7157 13.592C24.3356 13.2434 23.8067 13.1533 23.7738 12.6453C23.7712 12.606 23.7695 12.5654 23.7686 12.5239C23.7526 11.8903 23.8848 11.0151 23.3828 10.629C23.3264 10.5855 23.2721 10.5431 23.2203 10.5008C22.7872 10.1507 22.5085 9.83591 22.3419 9.31788C22.339 9.3093 22.3362 9.30071 22.3336 9.29184C22.1493 8.69769 22.1281 8.22603 21.4575 7.93754C21.4547 7.93639 21.4518 7.93496 21.449 7.93382C21.2008 7.82849 21.0709 7.63559 20.9839 7.41665C20.8325 7.03658 20.8104 6.57923 20.5231 6.3703C20.3769 6.26383 20.2026 6.23722 20.0165 6.23006C19.6267 6.21518 19.1843 6.2873 18.8362 5.89721C18.7135 5.75983 18.6167 5.62131 18.5326 5.48966C18.2633 5.06952 18.1227 4.71978 17.6843 4.70404C17.4808 4.69688 17.2361 4.74096 16.9859 4.79076C16.605 4.86717 16.2112 4.95733 15.9284 4.90152C15.8709 4.89007 15.818 4.8729 15.7707 4.848C15.3389 4.62161 15.4004 4.16913 14.8452 4.33369C14.4725 4.44417 14.2201 4.57296 14.0075 4.69574C13.903 4.75584 13.8083 4.81451 13.7135 4.8686C13.7135 4.8686 12.8403 3.93502 12.2645 4.29849C11.6884 4.66168 11.0633 5.28674 10.8289 5.33883C10.7599 5.35429 10.6434 5.356 10.5061 5.35887C10.1772 5.36574 9.72904 5.3789 9.52698 5.59928C9.24049 5.91181 9.05818 6.779 8.71989 6.98334C8.38132 7.18769 7.44372 7.8388 7.3135 8.17737C7.18328 8.51566 7.3135 8.95842 7.13119 9.42721C6.94888 9.89601 6.37619 10.7031 6.21993 11.1458C6.06366 11.5886 6.63664 12.1355 6.48037 12.6301C6.3241 13.1249 5.85531 13.9063 5.82926 14.2709C5.82411 14.3447 5.82926 14.4186 5.84071 14.4967C5.8845 14.8024 6.01644 15.169 5.93344 15.8332C5.91427 15.9872 5.87534 16.1277 5.8244 16.2577C5.59973 16.8318 5.1378 17.2004 5.07398 17.604C5.0425 17.8037 5.1338 18.0459 5.24227 18.296C5.40254 18.6658 5.59944 19.0536 5.49069 19.3487C5.49069 19.3487 5.48353 19.3527 5.47037 19.3607C5.35217 19.4314 4.75372 19.8043 4.6836 20.156C4.64468 20.3501 4.81411 20.6577 4.96551 20.9665C5.09001 21.2204 5.20248 21.4748 5.1773 21.6666C6.77086 21.2087 9.10712 20.8137 10.7531 20.5221C10.899 20.385 11.045 20.2665 11.1878 20.1741C11.4233 20.0215 11.6509 19.9391 11.8589 19.9574C11.9044 19.946 11.9388 19.9694 11.9388 19.9694C12.1231 19.6649 12.4542 19.3724 12.8063 19.6088C12.907 18.6764 12.8844 16.7763 12.8844 16.7763C11.8652 17.1363 10.8074 17.2242 10.0195 16.5948C8.93798 15.7311 8.8255 14.3376 9.14633 12.8765C9.63459 10.6522 11.128 8.27125 11.7373 7.36399C11.7445 7.38832 12.0928 8.55344 12.541 8.77754C12.9934 9.00363 13.7753 8.92149 14.2072 9.23002C14.6394 9.53854 14.7009 10.382 14.9891 10.629C15.277 10.876 16.4499 11.0817 16.5938 11.4518C16.7378 11.8221 16.4702 12.5216 16.8612 12.851C17.2521 13.1802 17.7046 12.9538 17.9104 13.4887C18.1162 14.0236 17.4596 14.754 17.8709 15.2065C18.2824 15.659 18.5815 15.8101 18.5406 16.5021C18.4994 17.1944 17.8895 17.9591 18.2598 18.5971C18.3643 18.7771 18.4771 18.9631 18.5878 19.1535C18.5981 19.1709 18.6084 19.1887 18.6184 19.2067C18.7395 19.4156 18.8568 19.6291 18.9573 19.8446C19.0569 20.0581 19.1399 20.2734 19.1931 20.488C19.2066 20.5415 19.2177 20.5948 19.2272 20.648C19.3505 21.3475 19.0214 22.15 19.5769 22.4585C20.1324 22.767 20.9347 21.9442 21.3874 21.9648C21.3897 21.9648 21.392 21.9651 21.3943 21.9654C21.8456 21.9889 22.3983 22.3352 22.9509 22.3352C23.5036 22.3352 24.5351 22.1706 24.7612 22.2733C24.9875 22.3764 25.7488 23.2198 26.325 22.9113C26.9008 22.6025 27.2299 22.3764 27.2917 22.1706C27.3035 22.1311 27.2958 22.0458 27.2766 21.9302ZM19.0283 19.9694C19.0283 19.9694 19.0606 19.9276 19.0967 19.9583C19.0735 19.9608 19.0509 19.9643 19.0283 19.9694Z" fill="#3D0027" stroke="black" stroke-width="0.254401" stroke-linecap="round" stroke-linejoin="round"/>
<path d="M27.2766 21.9302C27.2637 21.8529 27.246 21.7619 27.2254 21.6617C27.1163 21.1303 26.9329 20.3463 27.045 20.0103C27.2096 19.5167 27.3536 18.8993 26.7981 18.6114C26.2425 18.3235 26.1398 18.0971 26.1604 17.4592C26.1761 16.9615 25.9291 16.4637 25.6046 15.956C25.5133 15.8132 25.416 15.6698 25.3167 15.5253C25.2875 15.4829 25.2623 15.4423 25.2397 15.4028C24.9166 14.8284 25.2749 14.5368 24.9669 13.9206C24.9 13.7866 24.8127 13.681 24.7157 13.592C24.3356 13.2434 23.8067 13.1533 23.7738 12.6453C23.7712 12.606 23.7695 12.5654 23.7686 12.5239C23.7526 11.8903 23.8848 11.0151 23.3828 10.629C23.3264 10.5855 23.2721 10.5431 23.2203 10.5008C22.7872 10.1507 22.5085 9.83591 22.3419 9.31788C22.339 9.3093 22.3362 9.30071 22.3336 9.29184C22.1493 8.69769 22.1281 8.22603 21.4575 7.93754C21.4547 7.93639 21.4518 7.93496 21.449 7.93382C21.2008 7.82849 21.0709 7.63559 20.9839 7.41665C20.8325 7.03658 20.8104 6.57923 20.5231 6.3703C20.3769 6.26383 20.2026 6.23722 20.0165 6.23006C19.6267 6.21518 19.1843 6.2873 18.8362 5.89721C18.7135 5.75983 18.6167 5.62131 18.5326 5.48966C18.2633 5.06952 18.1227 4.71978 17.6843 4.70404C17.4808 4.69688 17.2361 4.74096 16.9859 4.79076C16.605 4.86717 16.2112 4.95733 15.9284 4.90152C15.8709 4.89007 15.818 4.8729 15.7707 4.848C15.3389 4.62161 15.4004 4.16913 14.8452 4.33369C14.4725 4.44417 14.2201 4.57296 14.0075 4.69574C13.903 4.75584 13.8083 4.81451 13.7135 4.8686C13.7135 4.8686 12.8403 3.93502 12.2645 4.29849C11.6884 4.66168 11.0633 5.28674 10.8289 5.33883C10.7599 5.35429 10.6434 5.356 10.5061 5.35887C10.1772 5.36574 9.72904 5.3789 9.52698 5.59928C9.24049 5.91181 9.05818 6.779 8.71989 6.98334C8.38132 7.18769 7.44372 7.8388 7.3135 8.17737C7.18328 8.51566 7.3135 8.95842 7.13119 9.42721C6.94888 9.89601 6.37619 10.7031 6.21993 11.1458C6.06366 11.5886 6.63664 12.1355 6.48037 12.6301C6.3241 13.1249 5.85531 13.9063 5.82926 14.2709C5.82411 14.3447 5.82926 14.4186 5.84071 14.4967C5.8845 14.8024 6.01644 15.169 5.93344 15.8332C5.91427 15.9872 5.87534 16.1277 5.8244 16.2577C5.59973 16.8318 5.1378 17.2004 5.07398 17.604C5.0425 17.8037 5.1338 18.0459 5.24227 18.296C5.40254 18.6658 5.59944 19.0536 5.49069 19.3487C5.49069 19.3487 5.48353 19.3527 5.47037 19.3607C5.35217 19.4314 4.75372 19.8043 4.6836 20.156C4.64468 20.3501 4.81411 20.6577 4.96551 20.9665C5.09001 21.2204 5.20248 21.4748 5.1773 21.6666C6.77086 21.2087 9.10712 20.8137 10.7531 20.5221C10.899 20.385 11.045 20.2665 11.1878 20.1741C11.4233 20.0215 11.6509 19.9391 11.8589 19.9574C11.9044 19.946 11.9388 19.9694 11.9388 19.9694C12.1231 19.6649 12.4542 19.3724 12.8063 19.6088C12.907 18.6764 12.8844 16.7763 12.8844 16.7763C11.8652 17.1363 10.8074 17.2242 10.0195 16.5948C8.93798 15.7311 8.8255 14.3376 9.14633 12.8765C9.63459 10.6522 11.128 8.27125 11.7373 7.36399C11.741 7.3763 11.8338 7.68682 11.9834 8.01739C12.1265 8.33335 12.3217 8.66821 12.541 8.77754C12.8 8.9069 13.1669 8.93523 13.514 8.9939C13.7736 9.03741 14.0223 9.09808 14.2072 9.23002C14.4413 9.39716 14.5667 9.72143 14.6783 10.0228C14.7728 10.2775 14.8572 10.5156 14.9891 10.629C15.2347 10.8396 16.1248 11.0205 16.4699 11.2987C16.5295 11.3468 16.5727 11.3974 16.5938 11.4518C16.6236 11.5282 16.6359 11.6187 16.6399 11.7171C16.6554 12.0952 16.5509 12.5897 16.8612 12.851C17.2521 13.1802 17.7046 12.9538 17.9104 13.4887C18.1162 14.0236 17.4596 14.754 17.8709 15.2065C18.2824 15.659 18.5815 15.8101 18.5406 16.5021C18.4994 17.1944 17.8895 17.9591 18.2598 18.5971C18.3643 18.7771 18.4771 18.9631 18.5878 19.1535C18.5981 19.1709 18.6084 19.1887 18.6184 19.2067C18.7395 19.4156 18.8568 19.6291 18.9573 19.8446C19.0569 20.0581 19.1399 20.2734 19.1931 20.488C19.2046 20.5341 19.2146 20.5799 19.2232 20.6257C19.2246 20.6331 19.2258 20.6406 19.2272 20.648C19.3505 21.3475 19.0214 22.15 19.5769 22.4585C20.1324 22.767 20.9347 21.9442 21.3874 21.9648C21.3897 21.9648 21.392 21.9651 21.3943 21.9654C21.8456 21.9889 22.3983 22.3352 22.9509 22.3352C23.5036 22.3352 24.5351 22.1706 24.7612 22.2733C24.9875 22.3764 25.7488 23.2198 26.325 22.9113C26.9008 22.6025 27.2299 22.3764 27.2917 22.1706C27.3035 22.1311 27.2958 22.0458 27.2766 21.9302ZM19.0283 19.9694C19.0283 19.9694 19.0606 19.9276 19.0967 19.9583C19.0735 19.9608 19.0509 19.9643 19.0283 19.9694Z" fill="#3D0027" stroke="black" stroke-width="0.254401" stroke-linecap="round" stroke-linejoin="round"/>
<path d="M15.2925 33.1625C15.2925 33.1625 15.1305 33.4742 14.921 33.8437C14.435 33.7091 13.6213 33.4756 12.6857 33.2037C11.0618 30.8171 8.60166 26.9233 8.60166 26.6723C8.60166 26.3077 10.2971 25.7058 10.3518 25.5055C10.4064 25.3048 8.43766 24.1563 8.49233 23.8647C8.53182 23.6535 9.65173 21.5548 10.7519 20.523C10.9093 20.3753 11.0664 20.2494 11.2198 20.1541C11.4433 20.015 11.6594 19.9409 11.8578 19.9583C11.7951 19.9741 11.7109 20.0562 11.6654 20.357C11.6331 20.5682 11.6199 20.8873 11.6463 21.367C11.7009 22.3638 13.0063 26.4213 14.0395 29.5014C14.7261 31.5478 15.2925 33.1625 15.2925 33.1625Z" fill="#F5D256" stroke="black" stroke-width="0.254401" stroke-linecap="round" stroke-linejoin="round"/>
<path d="M11.9372 19.9689C11.8568 20.1017 11.8044 20.2371 11.7904 20.3315C11.7498 20.3395 11.708 20.3475 11.665 20.3556C11.7105 20.0548 11.7947 19.9726 11.8574 19.9569C11.9029 19.9454 11.9372 19.9689 11.9372 19.9689Z" stroke="black" stroke-width="0.254401" stroke-linecap="round" stroke-linejoin="round"/>
<path d="M19.0972 19.9576C19.074 19.9602 19.0514 19.9636 19.0288 19.9688C19.0288 19.9688 19.0611 19.927 19.0972 19.9576Z" stroke="black" stroke-width="0.254401" stroke-linecap="round" stroke-linejoin="round"/>
<path d="M12.6854 33.2026C11.9438 32.9873 11.1259 32.7484 10.3331 32.516C8.31309 31.9238 6.45793 31.3752 6.45793 31.3752L2.27625 23.83C2.27625 23.83 2.23189 23.3655 3.62569 22.3035C3.91761 22.0811 4.47485 21.8676 5.17575 21.6664C6.50487 21.2846 8.35058 20.9463 9.88147 20.6753C10.1863 20.6214 10.4785 20.5702 10.7515 20.5219C9.65136 21.5536 8.53146 23.6523 8.49196 23.8635C8.4373 24.1552 10.4061 25.3037 10.3514 25.5043C10.2967 25.7047 8.60129 26.3065 8.60129 26.6712C8.60129 26.9222 11.0615 30.8159 12.6854 33.2026Z" fill="#F5D256" stroke="black" stroke-width="0.254401" stroke-linecap="round" stroke-linejoin="round"/>
<path d="M5.47037 19.3594C5.53963 19.6376 5.58714 19.92 5.54364 20.2008C5.49241 20.5325 5.27289 20.8611 4.96551 20.9652C4.81411 20.6564 4.64468 20.3488 4.6836 20.1547C4.75372 19.803 5.35217 19.4301 5.47037 19.3594Z" fill="#6D1151"/>
<path d="M5.823 16.2576C5.82815 16.4281 5.81613 16.597 5.7712 16.7616C5.66273 17.1585 5.37052 17.4879 5.27493 17.8883C5.24287 18.0226 5.234 18.1591 5.24087 18.2959C5.1324 18.0458 5.0411 17.8036 5.07258 17.6039C5.1364 17.2003 5.59833 16.8317 5.823 16.2576Z" fill="#6D1151"/>
<path d="M10.503 5.35974C10.0099 5.90782 9.50449 6.45017 8.90747 6.88118C8.56432 7.12875 8.18167 7.34912 7.95528 7.7063C7.62701 8.22461 7.70457 8.90434 7.46989 9.4713C7.22347 10.0669 6.63905 10.5285 6.58953 11.1711C6.54374 11.7623 6.97791 12.3262 6.87946 12.9109C6.77299 13.5414 6.10328 13.92 5.83768 14.4976C5.82652 14.4194 5.82108 14.3456 5.82624 14.2718C5.85228 13.9071 6.32108 13.1258 6.47734 12.631C6.63361 12.1364 6.06063 11.5895 6.2169 11.1467C6.37317 10.704 6.94585 9.89688 7.12816 9.42809C7.31047 8.95929 7.18025 8.51654 7.31047 8.17825C7.44069 7.83967 8.37829 7.18856 8.71686 6.98422C9.05515 6.77987 9.23746 5.91268 9.52395 5.60015C9.72601 5.37978 10.1742 5.36661 10.503 5.35974Z" fill="#6D1151"/>
<path d="M14.0409 29.5014C13.978 29.5878 13.8701 29.6462 13.7685 29.6173C13.6806 29.5924 13.6219 29.5117 13.5707 29.4362C12.0907 27.2453 11.2081 24.6555 11.0424 22.017C11.0032 21.444 11.0026 20.8487 11.1743 20.2952C11.1889 20.248 11.2047 20.201 11.2213 20.1541C11.4448 20.015 11.6609 19.9409 11.8592 19.9583C11.7965 19.9741 11.7124 20.0562 11.6669 20.357C11.6345 20.5682 11.6214 20.8873 11.6477 21.367C11.7024 22.3638 13.0077 26.4213 14.0409 29.5014Z" fill="#FFE8A9"/>
<path d="M13.5792 25.0021C13.3456 25.0379 11.7435 20.6441 11.7893 20.3327C11.8033 20.2383 11.8557 20.1029 11.9361 19.9701C12.1127 19.6785 12.4241 19.3977 12.7595 19.5826C12.7741 19.5906 12.789 19.5995 12.8036 19.6095C12.8582 19.6464 14.345 21.94 14.734 22.5402C14.7678 22.5926 14.7935 22.632 14.809 22.6561C15.135 23.1589 13.813 24.966 13.5792 25.0021Z" fill="#49A2A6" stroke="black" stroke-width="0.254401" stroke-linecap="round" stroke-linejoin="round"/>
<path d="M19.1954 20.7688C18.866 21.7508 16.5214 25.1094 16.1013 25.0813C15.8649 25.0656 15.5561 24.3964 15.3217 23.7817C15.1199 23.2536 14.9728 22.7657 14.9728 22.7657C14.9104 22.5665 15.6377 22.2631 16.6359 21.3412C16.9868 21.017 17.2993 20.6953 17.5661 20.4028C18.2118 19.6942 18.5884 19.1547 18.5884 19.1547C18.5987 19.1721 18.609 19.1899 18.619 19.2079C18.8726 19.6569 19.1107 20.3118 19.1951 20.5542C19.1963 20.6192 19.1963 20.6901 19.1954 20.7688Z" fill="#49A2A6" stroke="black" stroke-width="0.254401" stroke-linecap="round" stroke-linejoin="round"/>
<path d="M19.1942 20.7666C19.195 20.6879 19.195 20.6169 19.1939 20.5522C19.2151 20.6123 19.2265 20.647 19.2265 20.647C19.2202 20.6813 19.2093 20.7214 19.1942 20.7666Z" stroke="black" stroke-width="0.254401" stroke-linecap="round" stroke-linejoin="round"/>
<path d="M11.9379 19.9685C11.9116 19.9628 11.885 19.9588 11.8581 19.9565C11.9036 19.9451 11.9379 19.9685 11.9379 19.9685Z" stroke="black" stroke-width="0.254401" stroke-linecap="round" stroke-linejoin="round"/>
<path d="M19.0972 19.9576C19.074 19.9602 19.0514 19.9636 19.0288 19.9688C19.0288 19.9688 19.0611 19.927 19.0972 19.9576Z" stroke="black" stroke-width="0.254401" stroke-linecap="round" stroke-linejoin="round"/>
<path d="M19.1933 20.7679C19.1941 20.6892 19.1941 20.6182 19.193 20.5535C19.193 20.5306 19.1921 20.5092 19.1916 20.4883C19.205 20.5418 19.2162 20.595 19.2256 20.6483C19.2193 20.6826 19.2084 20.7227 19.1933 20.7679Z" stroke="black" stroke-width="0.254401" stroke-linecap="round" stroke-linejoin="round"/>
<path d="M11.3988 11.3074C11.3988 11.3074 10.6681 12.7209 10.9206 12.9201C11.173 13.1193 11.8106 12.4021 11.8106 12.4021" stroke="black" stroke-width="0.254401" stroke-linecap="round" stroke-linejoin="round"/>
<path d="M12.7936 14.7146C12.2275 15.0684 11.6339 14.4602 11.6339 14.4602C11.6339 14.4602 12.1264 14.4628 12.5815 14.1651C13.0366 13.8675 13.1851 13.5406 13.1851 13.5406C13.1851 13.5406 13.3594 14.3612 12.7936 14.7146Z" fill="#E938B5" stroke="black" stroke-width="0.254401" stroke-linecap="round" stroke-linejoin="round"/>
<path d="M13.1851 13.5406C13.1851 13.5406 13.0366 13.8675 12.5815 14.1651C12.1264 14.4628 11.6339 14.4602 11.6339 14.4602C11.6339 14.4602 11.8966 13.8337 12.048 13.864C12.1997 13.8944 12.2804 13.9831 12.3411 13.8629C12.4018 13.743 12.3311 13.6216 12.4825 13.5406C12.6342 13.4599 13.1851 13.5406 13.1851 13.5406Z" fill="#E938B5" stroke="black" stroke-width="0.254401" stroke-linecap="round" stroke-linejoin="round"/>
<path d="M13.3368 13.1072L13.1871 13.5413" stroke="black" stroke-width="0.254401" stroke-linecap="round" stroke-linejoin="round"/>
<path d="M13.0452 13.0312C13.1242 13.0058 13.2121 13.0218 13.2871 13.0578C13.3621 13.0939 13.4262 13.1486 13.4888 13.203C13.5255 13.2347 13.5644 13.2711 13.5718 13.3189" stroke="black" stroke-width="0.254401" stroke-linecap="round" stroke-linejoin="round"/>
<path d="M28.3235 22.403C27.8627 23.0206 27.2053 23.4934 26.4723 23.7376C25.6707 24.0046 24.7889 24.0023 23.9778 23.7636C23.7857 23.7072 23.5977 23.6377 23.4157 23.5553C22.9609 23.3495 22.5167 23.0613 22.0322 22.9912C21.9532 22.9797 21.8731 22.974 21.7918 22.9754C21.256 22.9849 20.7801 23.302 20.3459 23.6162C20.1126 23.7851 19.8402 23.9645 19.5651 23.9545C19.5151 23.9525 19.4653 23.9445 19.4152 23.9288C19.1553 23.8475 18.997 23.5893 18.8774 23.3446C18.8453 23.2791 18.8144 23.2127 18.7847 23.1454C19.0079 22.3026 19.1542 21.6469 19.1719 21.3209C19.1836 21.1048 19.1902 20.9219 19.1922 20.7674C19.2074 20.7219 19.2183 20.6818 19.2246 20.6475C19.3479 21.3469 19.0188 22.1494 19.5743 22.458C19.9441 22.6632 20.4229 22.3675 20.8353 22.1529C21.0428 22.045 21.2334 21.9574 21.3848 21.9643C21.3871 21.9643 21.3894 21.9646 21.3917 21.9648C21.843 21.9883 22.3957 22.3346 22.9483 22.3346C23.0339 22.3346 23.1309 22.3306 23.2345 22.3243C23.8021 22.2903 24.5674 22.1858 24.7585 22.2728C24.9849 22.3758 25.7462 23.2193 26.3223 22.9107C26.8982 22.6019 27.2273 22.3758 27.2891 22.1701C27.3009 22.1306 27.2931 22.0453 27.274 21.9296C27.5733 22.0063 27.7522 22.0536 27.7645 22.0599C27.7983 22.0767 28.0398 22.2201 28.3235 22.403Z" fill="#E0B836"/>
<path d="M24.021 24.3834C23.9675 24.5059 23.847 24.5834 23.7331 24.6538C23.2053 24.9787 22.6779 25.3038 22.1504 25.6286C22.5439 25.8893 23.1495 25.8733 23.3656 26.2932C23.4718 26.4992 23.4403 26.7471 23.3937 26.9743C23.0748 28.5207 22.2002 29.8581 21.3024 31.1766C20.4816 31.5684 19.6413 31.9685 18.8614 32.3389C20.4315 29.9789 22.3645 26.8942 22.3645 26.6718C22.3645 26.3072 20.669 25.7053 20.6144 25.505C20.5594 25.3044 22.5285 24.1558 22.4738 23.8642C22.4589 23.7855 22.2938 23.4435 22.0348 22.9921C21.8588 22.6845 21.639 22.3264 21.3943 21.9658C21.8456 21.9893 22.3983 22.3356 22.9509 22.3356C23.0365 22.3356 23.1335 22.3316 23.2371 22.3253C23.5565 22.7729 23.843 23.2451 23.9804 23.7646C24.0064 23.8633 24.027 23.9635 24.0416 24.0657C24.0568 24.1721 24.0639 24.2846 24.021 24.3834Z" fill="#E0B836"/>
<path d="M22.3622 26.6722C22.3622 26.8473 21.1625 28.7989 19.8857 30.7732C19.6914 30.8273 19.4865 30.837 19.2962 30.7746C19.4427 30.1532 19.8068 29.6055 20.2086 29.1095C20.6104 28.6135 21.0577 28.1524 21.4135 27.6224C21.5308 27.4478 21.6419 27.2389 21.5843 27.0368C21.5111 26.7795 21.2137 26.6728 20.9607 26.586C20.7074 26.4996 20.4181 26.3385 20.4146 26.0712C20.4121 25.8723 20.5763 25.7206 20.765 25.6384C21.1925 25.9029 22.3622 26.3694 22.3622 26.6722Z" fill="#FFE8A9"/>
<path d="M12.6837 33.2026C11.9421 32.9873 11.1242 32.7484 10.3314 32.516C9.97423 32.0074 9.63479 31.4856 9.29622 30.9648C8.8466 30.2736 8.39726 29.5824 7.94764 28.8912C7.78164 28.6362 7.61364 28.3763 7.52521 28.085C7.38354 27.6191 7.46138 27.1045 7.67031 26.6646C7.87924 26.2247 8.21151 25.8532 8.57928 25.5341C8.64139 25.4806 8.70836 25.4216 8.7241 25.3412C8.75644 25.1772 8.57041 25.0641 8.42016 24.9903C7.85691 24.7135 7.38611 24.2525 7.09791 23.6952C7.04553 23.5939 6.99802 23.4832 7.00947 23.3698C7.02321 23.235 7.11708 23.1237 7.20838 23.0232C7.64026 22.5473 8.10734 22.1037 8.60418 21.6961C9.02547 21.3507 9.45792 21.0204 9.87978 20.6753C10.1846 20.6214 10.4768 20.5702 10.7498 20.5219C9.64967 21.5536 8.52977 23.6523 8.49028 23.8635C8.43561 24.1552 10.4044 25.3037 10.3497 25.5043C10.2951 25.7047 8.5996 26.3065 8.5996 26.6712C8.5996 26.9222 11.0598 30.8159 12.6837 33.2026Z" fill="#E0B836"/>
<path d="M14.7351 22.5402C14.7131 22.7234 14.6779 22.9054 14.6104 23.0766C14.5772 23.1604 14.5337 23.2446 14.461 23.2981C14.2935 23.4215 14.0414 23.3259 13.9166 23.1596C13.7918 22.993 13.7558 22.7792 13.7014 22.5786C13.5686 22.0869 13.311 21.6401 13.0903 21.1811C12.8929 20.7704 12.6055 20.1765 12.7143 19.7063C12.7249 19.6608 12.7403 19.6196 12.7606 19.5826C12.7752 19.5907 12.7901 19.5995 12.8047 19.6095C12.8594 19.6465 14.3462 21.9401 14.7351 22.5402Z" fill="#63BABA"/>
<path d="M29.3381 23.2337C29.316 23.4549 26.1961 28.7431 25.9969 28.8979C25.8739 28.9938 21.9063 30.8936 18.8614 32.3392C20.4315 29.9792 22.3645 26.8945 22.3645 26.6721C22.3645 26.3075 20.669 25.7056 20.6144 25.5053C20.5594 25.3046 22.5285 24.1561 22.4738 23.8645C22.4489 23.732 21.9984 22.8556 21.3943 21.9661C21.8456 21.9896 22.3983 22.3359 22.9509 22.3359C23.5036 22.3359 24.535 22.1713 24.7611 22.2741C24.9875 22.3771 25.7488 23.2205 26.3249 22.912C26.9008 22.6032 27.2299 22.3771 27.2917 22.1713C27.3035 22.1318 27.2957 22.0465 27.2766 21.9309C27.5759 22.0076 27.7548 22.0548 27.7671 22.0611C27.8555 22.1052 29.3601 23.0125 29.3381 23.2337Z" stroke="black" stroke-width="0.254401" stroke-linecap="round" stroke-linejoin="round"/>
<path d="M22.3621 26.6708C22.3621 26.8932 20.4291 29.9779 18.859 32.3379C17.6489 32.9123 16.5845 33.4149 15.9652 33.7042C15.7946 33.3983 15.6713 33.161 15.6713 33.161C15.6713 33.161 19.0811 22.98 19.1721 21.3209C19.1838 21.1048 19.1904 20.9219 19.1924 20.7674C19.2076 20.7219 19.2184 20.6818 19.2247 20.6475C19.3481 21.3469 19.019 22.1494 19.5745 22.458C20.13 22.7665 20.9322 21.9437 21.385 21.9643C21.3873 21.9643 21.3896 21.9646 21.3918 21.9648C21.996 22.8544 22.4465 23.7307 22.4714 23.8632C22.5261 24.1549 20.557 25.3034 20.612 25.504C20.6666 25.7043 22.3621 26.3062 22.3621 26.6708Z" stroke="black" stroke-width="0.254401" stroke-linecap="round" stroke-linejoin="round"/>
<path d="M15.2925 33.1625C15.2925 33.1625 15.1305 33.4742 14.921 33.8437C14.435 33.7091 13.6213 33.4756 12.6857 33.2037C11.0618 30.8171 8.60166 26.9233 8.60166 26.6723C8.60166 26.3077 10.2971 25.7058 10.3518 25.5055C10.4064 25.3049 8.43766 24.1563 8.49233 23.8647C8.53182 23.6535 9.65173 21.5548 10.7519 20.523C11.1388 20.1598 11.5235 19.9289 11.8578 19.9583C11.7951 19.9741 11.7109 20.0562 11.6654 20.357C11.6331 20.5682 11.6199 20.8873 11.6463 21.367C11.7373 23.0261 15.2925 33.1625 15.2925 33.1625Z" stroke="black" stroke-width="0.254401" stroke-linecap="round" stroke-linejoin="round"/>
<path d="M12.6854 33.2026C10.0543 32.4387 6.45793 31.3752 6.45793 31.3752L2.27625 23.83C2.27625 23.83 2.23189 23.3655 3.62569 22.3035C3.91761 22.0811 4.47485 21.8676 5.17575 21.6664C6.76932 21.2084 9.10558 20.8135 10.7515 20.5219C9.65136 21.5536 8.53146 23.6523 8.49196 23.8635C8.4373 24.1552 10.4061 25.3037 10.3514 25.5043C10.2967 25.7047 8.60129 26.3065 8.60129 26.6712C8.60129 26.9222 11.0615 30.8159 12.6854 33.2026Z" stroke="black" stroke-width="0.254401" stroke-linecap="round" stroke-linejoin="round"/>
<path d="M17.6831 20.6472C17.6456 21.0315 17.5984 21.4399 17.3557 21.7405C17.089 22.0702 16.6434 22.1975 16.3277 22.4809C15.9273 22.8409 15.7865 23.3973 15.5893 23.8984C15.5801 23.9216 15.5693 23.9465 15.5469 23.9579C15.5083 23.9774 15.4645 23.9445 15.4347 23.9133C15.3964 23.8729 15.3586 23.8291 15.3217 23.7822C15.1199 23.2542 14.9728 22.7662 14.9728 22.7662C14.9104 22.567 15.6377 22.2636 16.6359 21.3418C16.9868 21.0175 17.2993 20.6958 17.5661 20.4033C17.6093 20.4231 17.6485 20.4505 17.6691 20.492C17.6929 20.5393 17.6883 20.5948 17.6831 20.6472Z" fill="#63BABA"/>
<path d="M15.7698 4.84899C15.817 4.87389 15.87 4.89107 15.9275 4.90251C15.9074 4.90824 15.8877 4.91453 15.8679 4.92054C15.315 5.09255 14.3399 5.38161 14.0065 4.69674C14.2191 4.57396 14.4716 4.44517 14.8442 4.33469C15.3994 4.17013 15.3379 4.62261 15.7698 4.84899Z" fill="#6D1151"/>
<path d="M18.5293 5.49037C18.2273 5.43599 17.9351 5.359 17.6815 5.19329C17.5327 5.09598 17.4025 4.97091 17.2457 4.88734C17.1612 4.84241 17.0731 4.8115 16.9826 4.79146C17.2328 4.74167 17.4775 4.69759 17.681 4.70475C18.1194 4.72049 18.2599 5.07022 18.5293 5.49037Z" fill="#6D1151"/>
<path d="M20.982 7.41596C20.7625 7.31922 20.5129 7.24309 20.3378 7.08912C20.0994 6.87933 20.0304 6.5565 20.0146 6.22937C20.2007 6.23653 20.375 6.26314 20.5212 6.36961C20.8086 6.57854 20.8306 7.03588 20.982 7.41596Z" fill="#6D1151"/>
<path d="M22.3323 9.29253C22.3349 9.30141 22.3378 9.30999 22.3406 9.31858C22.2948 9.2911 22.2496 9.26334 22.205 9.23472C21.8466 9.00462 21.5029 8.67234 21.466 8.24819C21.4571 8.14544 21.4669 8.04012 21.4563 7.93823C22.1268 8.22672 22.148 8.69838 22.3323 9.29253Z" fill="#6D1151"/>
<path d="M23.7666 12.5249C23.0829 12.1617 22.7815 11.1591 23.2183 10.5017C23.2701 10.5441 23.3245 10.5864 23.3808 10.6299C23.8828 11.016 23.7506 11.8912 23.7666 12.5249Z" fill="#6D1151"/>
<path d="M25.2378 15.4015C24.9877 15.3013 24.6769 15.2372 24.5071 15.0374C24.2519 14.7372 24.4216 14.2827 24.5879 13.9256C24.6362 13.8217 24.6814 13.7072 24.7138 13.5907C24.8108 13.6797 24.8981 13.7853 24.9651 13.9193C25.273 14.5354 24.9147 14.8271 25.2378 15.4015Z" fill="#6D1151"/>
<path d="M27.2238 21.6621C27.0893 21.574 26.9725 21.4555 26.8867 21.3207C26.6766 20.9918 26.6239 20.5849 26.6425 20.1951C26.6603 19.817 26.7393 19.4303 26.6388 19.0654C26.4914 18.5311 25.9997 18.1713 25.7178 17.6942C25.4465 17.2355 25.3813 16.6602 25.5427 16.1522C25.5633 16.0875 25.5876 16.0222 25.6031 15.9564C25.9276 16.4641 26.1746 16.9618 26.1589 17.4595C26.1383 18.0975 26.241 18.3239 26.7965 18.6118C27.352 18.8997 27.2081 19.517 27.0435 20.0107C26.9313 20.3467 27.1148 21.1306 27.2238 21.6621Z" fill="#6D1151"/>
<path d="M13.5792 25.0022C13.3456 25.0379 11.7435 20.6442 11.7893 20.3328C11.8033 20.2383 11.8557 20.103 11.9361 19.9702C12.1204 19.6657 12.4515 19.3732 12.8036 19.6096C12.8631 19.6496 14.6161 22.3585 14.809 22.6562C15.135 23.159 13.813 24.9661 13.5792 25.0022Z" stroke="black" stroke-width="0.254401" stroke-linecap="round" stroke-linejoin="round"/>
<path d="M19.1954 20.7688C18.866 21.7508 16.5214 25.1094 16.1013 25.0813C15.6617 25.0518 14.9728 22.7657 14.9728 22.7657C14.9104 22.5665 15.6377 22.2631 16.6359 21.3412C17.8365 20.2316 18.5884 19.1547 18.5884 19.1547C18.5987 19.1721 18.609 19.1899 18.619 19.2079C18.8726 19.6569 19.1107 20.3118 19.1951 20.5542C19.1963 20.6192 19.1963 20.6901 19.1954 20.7688Z" stroke="black" stroke-width="0.254401" stroke-linecap="round" stroke-linejoin="round"/>
<path d="M11.8116 7.41748C11.6129 7.62498 11.7111 8.20482 11.7686 8.48615C11.7975 8.62725 11.8299 8.77522 11.9237 8.88455C12.0316 9.01048 12.2005 9.06285 12.3613 9.10263C12.7271 9.19307 13.1015 9.24974 13.4778 9.2712C13.5934 9.27779 13.7119 9.28179 13.8187 9.32615C14.0391 9.41803 14.1564 9.65729 14.2299 9.88425C14.3035 10.1112 14.3582 10.3568 14.5202 10.5319C14.8793 10.9203 15.6023 10.7998 15.916 11.2257C16.0868 11.4578 16.0717 11.7723 16.0636 12.0605C16.0556 12.3487 16.0779 12.673 16.2929 12.865C16.4969 13.0476 16.8003 13.0453 17.0739 13.0433C17.3475 13.0413 17.6575 13.0659 17.8315 13.2772C18.0029 13.4849 17.9723 13.7903 17.9028 14.0505C17.8332 14.3106 17.7325 14.5794 17.7943 14.8415C17.8069 14.8951 17.8573 14.9594 17.9033 14.9294" stroke="black" stroke-width="0.254401" stroke-linecap="round" stroke-linejoin="round"/>
<path d="M11.7311 7.50818C11.3427 7.91659 11.2368 8.56884 11.4758 9.07942C11.715 9.59 12.2837 9.926 12.8461 9.88908C13.1646 9.86819 13.5278 9.75171 13.7737 9.95548C13.9631 10.1126 13.986 10.3905 14.0979 10.6097C14.2462 10.9002 14.5553 11.082 14.8733 11.1544C15.1912 11.2268 15.5224 11.2056 15.8478 11.1839" stroke="black" stroke-width="0.254401" stroke-linecap="round" stroke-linejoin="round"/>
<path d="M12.806 19.6091C12.454 19.3727 12.1228 19.6652 11.9385 19.9697C11.9385 19.9697 11.9042 19.9463 11.8587 19.9577C11.6506 19.9394 11.4231 20.0218 11.1875 20.1744C11.1786 20.0659 11.1732 19.9572 11.1695 19.8493C11.1595 19.5642 11.158 19.2734 11.0676 19.0027C10.9772 18.7322 10.778 18.4798 10.5015 18.4088C10.2296 18.339 9.94798 18.454 9.66779 18.4729C9.04501 18.5144 8.46832 18.0531 8.21589 17.4824C7.96346 16.9117 7.98006 16.2574 8.08166 15.6415C8.24108 14.6722 8.60827 13.7749 9.11141 12.9352C9.12286 12.916 9.13459 12.8966 9.14604 12.8768C8.82521 14.3379 8.93769 15.7314 10.0192 16.5952C10.8072 17.2245 11.865 17.1366 12.8841 16.7766C12.8841 16.7766 12.9067 18.6767 12.806 19.6091Z" fill="#210017"/>
<path d="M13.1124 8.18155C13.3227 8.40135 13.4103 8.70272 13.5142 8.99407C13.1671 8.9354 12.8001 8.90707 12.5411 8.7777C12.3219 8.66838 12.1267 8.33352 11.9836 8.01756C12.3422 7.83353 12.829 7.88504 13.1124 8.18155Z" fill="#6D1151"/>
<path d="M16.4677 11.2997C16.1226 11.0215 15.2325 10.8406 14.9869 10.63C14.855 10.5166 14.7706 10.2785 14.6761 10.0238C14.8627 10.0762 15.0528 10.1234 15.2305 10.1901C15.7617 10.389 16.2047 10.7983 16.4677 11.2997Z" fill="#6D1151"/>
<path d="M19.2221 20.6264C19.2136 20.5806 19.2035 20.5348 19.1921 20.4887C19.1389 20.274 19.0559 20.0588 18.9563 19.8453C18.8558 19.6298 18.7385 19.4163 18.6174 19.2074C18.6074 19.1893 18.5971 19.1716 18.5868 19.1541C18.476 18.9638 18.3633 18.7778 18.2588 18.5978C17.8885 17.9598 18.4983 17.1951 18.5396 16.5028C18.5805 15.8107 18.2814 15.6596 17.8698 15.2071C17.4586 14.7547 18.1151 14.0243 17.9093 13.4894C17.7036 12.9544 17.2511 13.1808 16.8601 12.8517C16.5499 12.5904 16.6544 12.0958 16.6389 11.7178C16.6738 11.8357 16.699 11.9565 16.7136 12.079C16.7245 12.1711 16.7305 12.2664 16.7728 12.3488C16.8939 12.5847 17.2173 12.5921 17.4757 12.6508C18.1297 12.7999 18.5799 13.5457 18.4076 14.1937C18.3263 14.4991 18.1297 14.7773 18.1254 15.0932C18.1246 15.1605 18.1337 15.2306 18.1698 15.2873C18.239 15.3952 18.3804 15.4232 18.4998 15.4707C19.0003 15.6699 19.1832 16.3047 19.114 16.8391C19.0444 17.3734 18.7951 17.8694 18.7013 18.4C18.6789 18.5259 18.6658 18.6564 18.6938 18.7812C18.7342 18.9598 18.8535 19.1078 18.9465 19.2652C19.1889 19.6762 19.2482 20.1455 19.2221 20.6264Z" fill="#6D1151"/>
<path d="M27.2766 21.9302C27.1958 21.4411 26.9116 20.4096 27.045 20.0103C27.2096 19.5167 27.3535 18.8993 26.798 18.6114C26.2425 18.3235 26.1398 18.0971 26.1604 17.4592C26.1807 16.8215 25.7694 16.1838 25.3166 15.5253C24.8642 14.867 25.296 14.5791 24.9669 13.9206C24.6378 13.2623 23.815 13.2829 23.7737 12.6453C23.7325 12.0073 23.9177 11.0405 23.3828 10.629C22.8479 10.2174 22.5187 9.88828 22.3336 9.29184C22.1484 8.69511 22.1278 8.22202 21.4489 7.93382C20.7701 7.6459 20.9758 6.69943 20.5231 6.3703C20.0706 6.04117 19.3505 6.47333 18.8362 5.89721C18.3219 5.32109 18.2601 4.72465 17.6842 4.70404C17.1081 4.68343 16.2029 5.07438 15.7707 4.848C15.3388 4.62161 15.4004 4.16913 14.8451 4.33369C14.2896 4.49826 14.0014 4.70404 13.7135 4.8686C13.7135 4.8686 12.8403 3.93502 12.2645 4.29849C11.6883 4.66168 11.0633 5.28674 10.8289 5.33883C10.5948 5.39092 9.81343 5.28674 9.52695 5.59928C9.24046 5.91181 9.05815 6.779 8.71986 6.98334C8.38128 7.18769 7.44369 7.8388 7.31347 8.17737C7.18325 8.51566 7.31347 8.95842 7.13116 9.42721C6.94885 9.89601 6.37616 10.7031 6.2199 11.1458C6.06363 11.5886 6.6366 12.1355 6.48034 12.6301C6.32407 13.1249 5.85528 13.9063 5.82923 14.2709C5.80319 14.6352 6.03759 14.9998 5.93341 15.8332C5.82923 16.6664 5.15208 17.1091 5.07395 17.604C4.99581 18.0988 5.67297 18.8538 5.49066 19.3487C5.49066 19.3487 4.76142 19.7654 4.68357 20.156C4.61288 20.5095 5.23336 21.2416 5.17727 21.6666C6.77083 21.2087 9.10709 20.8137 10.753 20.5221C11.14 20.1589 11.5246 19.9279 11.8589 19.9574C11.9044 19.946 11.9388 19.9694 11.9388 19.9694C12.1231 19.6649 12.4542 19.3724 12.8062 19.6088C12.907 18.6764 12.8844 16.7763 12.8844 16.7763C11.8652 17.1363 10.8074 17.2242 10.0195 16.5948C7.29172 14.4163 10.7276 8.86712 11.7373 7.36399C11.7444 7.38832 12.0927 8.55344 12.5409 8.77754C12.9934 9.00363 13.7753 8.92149 14.2072 9.23002C14.6394 9.53854 14.7009 10.382 14.9891 10.629C15.277 10.876 16.4499 11.0817 16.5938 11.4518C16.7378 11.8221 16.4702 12.5216 16.8611 12.851C17.2521 13.1802 17.7046 12.9538 17.9103 13.4887C18.1161 14.0236 17.4596 14.754 17.8708 15.2065C18.2824 15.659 18.5815 15.8101 18.5406 16.5021C18.4993 17.1944 17.8895 17.9591 18.2598 18.5971C18.3643 18.7771 18.477 18.9631 18.5878 19.1535C18.5981 19.1709 18.6084 19.1887 18.6184 19.2067C18.7395 19.4156 18.8568 19.6291 18.9573 19.8446C19.0569 20.0581 19.1399 20.2734 19.1931 20.488C19.2065 20.5415 19.2177 20.5948 19.2272 20.648C19.3505 21.3475 19.0214 22.15 19.5769 22.4585C20.1324 22.767 20.9346 21.9442 21.3874 21.9648C21.3897 21.9648 21.392 21.9651 21.3943 21.9654C21.8456 21.9889 22.3983 22.3352 22.9509 22.3352C23.5036 22.3352 24.535 22.1706 24.7611 22.2733C24.9875 22.3764 25.7488 23.2198 26.3249 22.9113C26.9008 22.6025 27.2299 22.3764 27.2917 22.1706C27.3035 22.1311 27.2957 22.0458 27.2766 21.9302ZM19.0282 19.9694C19.0282 19.9694 19.0606 19.9276 19.0966 19.9583C19.0735 19.9608 19.0509 19.9643 19.0282 19.9694Z" stroke="black" stroke-width="0.254401" stroke-linecap="round" stroke-linejoin="round"/>
<path d="M11.8673 10.4124H14.5047V10.9103C14.5047 11.6244 13.9251 12.204 13.2111 12.204H13.1613C12.4472 12.204 11.8676 11.6244 11.8676 10.9103V10.4124H11.8673Z" fill="#E86F3A" stroke="black" stroke-width="0.254401" stroke-linecap="round" stroke-linejoin="round"/>
<path d="M8.33777 10.412H10.9751V10.91C10.9751 11.624 10.3956 12.2036 9.68148 12.2036H9.63168C8.91761 12.2036 8.33806 11.624 8.33806 10.91V10.412H8.33777Z" fill="#E86F3A" stroke="black" stroke-width="0.254401" stroke-linecap="round" stroke-linejoin="round"/>
<path d="M10.9768 10.9102C10.9768 10.9102 11.2684 10.4489 11.8692 10.9102" stroke="black" stroke-width="0.254401" stroke-linecap="round" stroke-linejoin="round"/>
</g>
<defs>
<clipPath id="clip0_439_806">
<rect x="0.777771" y="0.511597" width="28.5714" height="28.5714" rx="14.2857" fill="white"/>
</clipPath>
</defs>
</svg>
